# xmcd
#
# Track frame offsets:
#	150
#	20671
#	41332
#	53026
#	66578
#	79467
#	92841
#	104045
#	114769
#	134402
#	152229
#	163843
#	176377
#	190795
#	205084
#	225265
#	238365
#	249935
#	261912
#	277196
#
# Disc length: 3881 seconds
#
# Revision: 2
# Processed by: cddbd v1.5.2PL0 Copyright (c) Steve Scherf et al.
# Submitted via: audiograbber 1.83.01
#
DISCID=1e0f2714
DTITLE=Latino Salsa - [CD 1-3] - Salsa - Maxi 3CD
DYEAR=2011
DGENRE=Salsa
TTITLE0=01 - Yemaya - Salsa Salsa 
TTITLE1=02 - Johnny Rowd - Mala
TTITLE2=03 - Celia Cruz and La Sonora Matancera - Rumba Quiero Gozar
TTITLE3=04 - Ismael Rivera - El Negro Bembon 
TTITLE4=05 - Beny Moré - Soy Del Monte
TTITLE5=06 - La Sonora Matancera - Cualquiera Resbala Y Cae
TTITLE6=07 - Roberto Faz - Rumba Pa Los Rumberos
TTITLE7=08 - Beny More - Francisco Guyabal
TTITLE8=09 - John Rowd - Me Marchos Lejos
TTITLE9=10 - Adalberto Santiago - Oye Mi Guajira
TTITLE10=11 - Trio Matamoros - Lagrimas Negras
TTITLE11=12 - Celia Cruz - Me Voy A Pinar Del Rio
TTITLE12=13 - Joe Cuba Sextette - Siempre Sea
TTITLE13=14 - Celeste Mendoza - Sobre Una Tumba, Una Rumba
TTITLE14=15 - Tito Puente - Tumba Tumbador
TTITLE15=16 - Machito - Poco A Poquito
TTITLE16=17 - Mongo Santamaria Y Tito Puente - Pito Joe
TTITLE17=18 - Antonio Machín - El Manisero
TTITLE18=19 - Beny Moré - Que Te Pasa Jose ?
TTITLE19=20 - Perez Prado - Timba Timba
EXTD=YEAR: 2011
EXTT0=
EXTT1=
EXTT2=
EXTT3=
EXTT4=
EXTT5=
EXTT6=
EXTT7=
EXTT8=
EXTT9=
EXTT10=
EXTT11=
EXTT12=
EXTT13=
EXTT14=
EXTT15=
EXTT16=
EXTT17=
EXTT18=
EXTT19=
PLAYORDER=
